HIERARCHY
ROOT Hips
{
	OFFSET 0.00000 0.00000 0.00000
	CHANNELS 6 Xposition Yposition Zposition Zrotation Yrotation Xrotation 
	JOINT LHipJoint
	{
		OFFSET 0 0 0
		CHANNELS 3 Zrotation Yrotation Xrotation
		JOINT LeftUpLeg
		{
			OFFSET 1.48831 -1.59570 0.95625
			CHANNELS 3 Zrotation Yrotation Xrotation
			JOINT LeftLeg
			{
				OFFSET 2.20856 -6.06797 0.00000
				CHANNELS 3 Zrotation Yrotation Xrotation
				JOINT LeftFoot
				{
					OFFSET 2.62924 -7.22379 0.00000
					CHANNELS 3 Zrotation Yrotation Xrotation
					JOINT LeftToeBase
					{
						OFFSET 0.16802 -0.46163 2.41673
						CHANNELS 3 Zrotation Yrotation Xrotation
						End Site
						{
							OFFSET 0.00000 -0.00000 1.23760
						}
					}
				}
			}
		}
	}
	JOINT RHipJoint
	{
		OFFSET 0 0 0
		CHANNELS 3 Zrotation Yrotation Xrotation
		JOINT RightUpLeg
		{
			OFFSET -1.56796 -1.59570 0.95625
			CHANNELS 3 Zrotation Yrotation Xrotation
			JOINT RightLeg
			{
				OFFSET -2.29239 -6.29829 0.00000
				CHANNELS 3 Zrotation Yrotation Xrotation
				JOINT RightFoot
				{
					OFFSET -2.66963 -7.33475 0.00000
					CHANNELS 3 Zrotation Yrotation Xrotation
					JOINT RightToeBase
					{
						OFFSET -0.18185 -0.49964 2.34359
						CHANNELS 3 Zrotation Yrotation Xrotation
						End Site
						{
							OFFSET -0.00000 -0.00000 1.20477
						}
					}
				}
			}
		}
	}
	JOINT LowerBack
	{
		OFFSET 0 0 0
		CHANNELS 3 Zrotation Yrotation Xrotation
		JOINT Spine
		{
			OFFSET 0.03505 2.15832 -0.34324
			CHANNELS 3 Zrotation Yrotation Xrotation
			JOINT Spine1
			{
				OFFSET -0.01089 2.17963 0.04689
				CHANNELS 3 Zrotation Yrotation Xrotation
				JOINT Neck
				{
					OFFSET 0 0 0
					CHANNELS 3 Zrotation Yrotation Xrotation
					JOINT Neck1
					{
						OFFSET 0.04686 1.69404 0.22159
						CHANNELS 3 Zrotation Yrotation Xrotation
						JOINT Head
						{
							OFFSET 0.00265 1.69305 -0.01513
							CHANNELS 3 Zrotation Yrotation Xrotation
							End Site
							{
								OFFSET -0.00415 1.80215 -0.03034
							}
						}
					}
				}
				JOINT LeftShoulder
				{
					OFFSET 0 0 0
					CHANNELS 3 Zrotation Yrotation Xrotation
					JOINT LeftArm
					{
						OFFSET 3.67184 1.11724 -0.19002
						CHANNELS 3 Zrotation Yrotation Xrotation
						JOINT LeftForeArm
						{
							OFFSET 5.17714 -0.00000 -0.00000
							CHANNELS 3 Zrotation Yrotation Xrotation
							JOINT LeftHand
							{
								OFFSET 3.43679 -0.00000 -0.00000
								CHANNELS 3 Zrotation Yrotation Xrotation
								JOINT LeftFingerBase
								{
									OFFSET 0 0 0
									CHANNELS 3 Zrotation Yrotation Xrotation
									JOINT LeftHandIndex1
									{
										OFFSET 0.57312 -0.00000 -0.00000
										CHANNELS 3 Zrotation Yrotation Xrotation
										End Site
										{
											OFFSET 0.46206 -0.00000 -0.00000
										}
									}
								}
								JOINT LThumb
								{
									OFFSET 0 0 0
									CHANNELS 3 Zrotation Yrotation Xrotation
									End Site
									{
										OFFSET 0.46912 -0.00000 0.46912
									}
								}
							}
						}
					}
				}
				JOINT RightShoulder
				{
					OFFSET 0 0 0
					CHANNELS 3 Zrotation Yrotation Xrotation
					JOINT RightArm
					{
						OFFSET -3.59596 0.95831 -0.26050
						CHANNELS 3 Zrotation Yrotation Xrotation
						JOINT RightForeArm
						{
							OFFSET -5.23908 -0.00000 -0.00000
							CHANNELS 3 Zrotation Yrotation Xrotation
							JOINT RightHand
							{
								OFFSET -3.46485 -0.00000 -0.00000
								CHANNELS 3 Zrotation Yrotation Xrotation
								JOINT RightFingerBase
								{
									OFFSET 0 0 0
									CHANNELS 3 Zrotation Yrotation Xrotation
									JOINT RightHandIndex1
									{
										OFFSET -0.60875 -0.00000 -0.00000
										CHANNELS 3 Zrotation Yrotation Xrotation
										End Site
										{
											OFFSET -0.49079 -0.00000 -0.00000
										}
									}
								}
								JOINT RThumb
								{
									OFFSET 0 0 0
									CHANNELS 3 Zrotation Yrotation Xrotation
									End Site
									{
										OFFSET -0.49829 -0.00000 0.49829
									}
								}
							}
						}
					}
				}
			}
		}
	}
}
MOTION
Frames: 6
Frame Time: .0083333
49.5693 15.9795 16.9326 0 0 0 0 0 0 -21 0 0 0 0 0 0 0 0 0 0 0 0 0 0 21 0 0 0 0 0 0 0 0 0 0 0 0 0 0 0 0 0 0 0 0 0 0 -16 0 0 21 0 0 11 0 0 0 -8 0 0 0 0 0 0 0 0 0 0 0 0 0 0 0 0 0 0 0 0 8 0 0 0 0 0 0 0 0 0 0 0 0 0 0 0 0 0
49.5693 15.9795 16.9326 -172.8950 -49.7455 175.6140 0.0000 0.0000 0.0000 -15.7779 8.2705 -8.8615 2.0722 9.0150 25.8421 1.4333 -1.4757 -22.2084 0.0158 -0.8113 -2.2297 0.0000 0.0000 0.0000 27.5695 5.9714 -9.3581 -3.3327 -11.2151 33.0087 -1.9902 -3.2126 -27.9591 -0.0252 -1.0238 2.8144 4.1873 -0.9695 -2.1392 1.9182 -1.6703 3.5357 -0.4668 -0.7580 4.8023 1.7035 -0.6732 -3.1592 0.2382 -0.9808 1.9250 -0.2281 -0.4749 1.1081 -0.0000 -0.0000 0.0000 -89.3008 -1.2466 23.3123 14.2346 -23.0690 -2.9194 -0.0000 0.0000 -20.1243 17.3573 8.4893 2.6419 -7.1250 0.0000 -0.0000 -8.2257 38.7443 1.2778 -0.0000 -0.0000 0.0000 86.5187 -0.4221 23.6739 -16.1840 25.7695 -3.7256 0.0000 0.0000 1.5550 -20.4963 -2.0663 0.7722 7.1250 -0.0000 -0.0000 4.9039 -32.1605 1.5461
49.5682 15.9793 16.9325 -172.9110 -49.7452 175.6110 0.0000 0.0000 0.0000 -15.7952 8.2417 -8.8199 2.0702 9.0108 25.8290 1.4331 -1.4323 -22.2187 0.0157 -0.8080 -2.2206 0.0000 0.0000 0.0000 27.5566 5.9578 -9.3505 -3.3330 -11.2155 33.0101 -1.9817 -3.2823 -27.9336 -0.0211 -0.9377 2.5774 4.2751 -0.8685 -2.1615 1.9357 -1.5384 3.4864 -0.4898 -0.6905 4.7672 1.3928 -0.7901 -2.8644 0.4128 -1.1215 1.7857 -0.1232 -0.5463 1.0150 -0.0000 -0.0000 0.0000 -89.3852 -1.1310 23.5330 14.2632 -23.1097 -2.9306 -0.0000 0.0000 -20.0614 17.3088 8.5076 2.6396 -7.1250 0.0000 -0.0000 -8.2700 38.7596 1.2816 -0.0000 -0.0000 0.0000 86.4680 -0.5961 23.3682 -16.1918 25.7800 -3.7290 0.0000 0.0000 1.5885 -20.7137 -2.0998 0.7938 7.1250 -0.0000 -0.0000 4.7314 -32.2011 1.4867
49.5691 15.9795 16.9324 -172.9300 -49.7573 175.6190 0.0000 0.0000 0.0000 -15.8049 8.2563 -8.8158 2.0673 9.0049 25.8106 1.4315 -1.4479 -22.2019 0.0173 -0.8500 -2.3361 0.0000 0.0000 0.0000 27.5482 5.9577 -9.3554 -3.3348 -11.2182 33.0194 -1.9836 -3.3025 -27.9558 -0.0215 -0.9457 2.5993 4.2858 -0.8387 -2.1643 1.8963 -1.4981 3.5107 -0.5343 -0.6683 4.7945 1.4808 -0.8184 -2.9477 0.4282 -1.1651 1.7840 -0.1342 -0.5672 1.0281 0.0000 -0.0000 0.0000 -89.2759 -1.2545 23.6930 14.1945 -23.0120 -2.9037 -0.0000 0.0000 -20.1199 17.3332 8.5084 2.6439 -7.1250 0.0000 -0.0000 -8.2493 38.7623 1.2778 0.0000 -0.0000 0.0000 86.5703 -0.5553 23.1926 -16.1681 25.7481 -3.7187 0.0000 0.0000 1.7044 -20.9221 -2.1153 0.8085 7.1250 -0.0000 -0.0000 4.5649 -32.2223 1.4317
49.5677 15.9790 16.9323 -172.9560 -49.7298 175.6130 0.0000 0.0000 0.0000 -15.8229 8.2623 -8.7663 2.0645 8.9992 25.7927 1.4319 -1.4195 -22.2124 0.0163 -0.8231 -2.2621 0.0000 0.0000 0.0000 27.5339 5.9708 -9.3178 -3.3365 -11.2208 33.0283 -1.9862 -3.2722 -27.9593 -0.0223 -0.9645 2.6511 4.2501 -0.8539 -2.1607 1.9134 -1.5187 3.5228 -0.4980 -0.6802 4.8055 1.4668 -0.7993 -2.9528 0.4036 -1.1385 1.8146 -0.1392 -0.5541 1.0387 -0.0000 0.0000 0.0000 -89.3224 -1.2262 23.6059 14.2241 -23.0541 -2.9153 -0.0000 0.0000 -20.0897 17.3445 8.4719 2.6344 -7.1250 0.0000 -0.0000 -8.2338 38.7253 1.2829 -0.0000 0.0000 0.0000 86.5490 -0.5339 23.1737 -16.1408 25.7112 -3.7068 0.0000 0.0000 1.8627 -21.0140 -2.1145 0.8120 7.1250 -0.0000 -0.0000 4.4910 -32.2235 1.4083
49.5669 15.9787 16.9322 -172.9800 -49.7153 175.6120 0.0000 0.0000 0.0000 -15.8390 8.2715 -8.7311 2.0615 8.9930 25.7734 1.4316 -1.3985 -22.2161 0.0162 -0.8218 -2.2587 0.0000 0.0000 0.0000 27.5207 5.9766 -9.2981 -3.3387 -11.2241 33.0395 -1.9874 -3.2685 -27.9651 -0.0224 -0.9653 2.6534 4.2482 -0.8380 -2.1640 1.9083 -1.4980 3.5336 -0.5010 -0.6696 4.8194 1.4563 -0.8130 -2.9443 0.4188 -1.1566 1.8055 -0.1330 -0.5631 1.0344 -0.0000 0.0000 0.0000 -89.3218 -1.2149 23.6250 14.2488 -23.0893 -2.9250 -0.0000 0.0000 -20.0760 17.3372 8.4674 2.6319 -7.1250 0.0000 -0.0000 -8.2393 38.7201 1.2848 -0.0000 0.0000 0.0000 86.5699 -0.5298 23.0727 -16.1244 25.6890 -3.6997 0.0000 0.0000 1.9765 -21.1286 -2.1577 0.8336 7.1250 -0.0000 -0.0000 4.4015 -32.2724 1.3749
